<?xml version="1.0" encoding="UTF-8" standalone="no"?>
<!DOCTYPE svg PUBLIC "-//W3C//DTD SVG 1.1//EN"
 "http://www.w3.org/Graphics/SVG/1.1/DTD/svg11.dtd">
<!-- Generated by graphviz version 2.40.1 (20161225.0304)
 -->
<!-- Title: G Pages: 1 -->
<svg width="152pt" height="314pt"
 viewBox="0.00 0.00 152.00 314.00" xmlns="http://www.w3.org/2000/svg" xmlns:xlink="http://www.w3.org/1999/xlink">
<g id="graph0" class="graph" transform="scale(1 1) rotate(0) translate(4 310)">
<title>G</title>
<polygon fill="#ffffff" stroke="transparent" points="-4,4 -4,-310 148,-310 148,4 -4,4"/>
<g id="clust1" class="cluster">
<title>cluster_/_input</title>
</g>
<g id="clust2" class="cluster">
<title>cluster_/_output</title>
</g>
<!-- /preprocess -->
<g id="node1" class="node">
<title>/preprocess</title>
<polygon fill="#a1c9f4" stroke="#82b6ed" points="126,-218 18,-218 18,-171 126,-171 126,-218"/>
<text text-anchor="start" x="30" y="-199.5" font-family="Verdana" font-size="10.00" fill="#000000">«EstimatorNode»</text>
<text text-anchor="start" x="45.5" y="-183.5" font-family="Verdana" font-size="10.00" fill="#000000">preprocess</text>
</g>
<!-- /model -->
<g id="node2" class="node">
<title>/model</title>
<polygon fill="#a1c9f4" stroke="#82b6ed" points="126,-135 18,-135 18,-88 126,-88 126,-135"/>
<text text-anchor="start" x="30" y="-116.5" font-family="Verdana" font-size="10.00" fill="#000000">«EstimatorNode»</text>
<text text-anchor="start" x="57" y="-100.5" font-family="Verdana" font-size="10.00" fill="#000000">model</text>
</g>
<!-- /preprocess&#45;&gt;/model -->
<g id="edge1" class="edge">
<title>/preprocess&#45;&gt;/model</title>
<path fill="none" stroke="#000000" stroke-opacity="0.466667" d="M72,-170.9375C72,-162.0007 72,-151.6897 72,-142.1907"/>
<polygon fill="#000000" fill-opacity="0.466667" stroke="#000000" stroke-opacity="0.466667" points="74.4501,-142.1213 72,-135.1214 69.5501,-142.1214 74.4501,-142.1213"/>
</g>
<!-- /out_result -->
<g id="node4" class="node">
<title>/out_result</title>
<polygon fill="#f6bd98" stroke="#f6bd98" points="57,-22 99,-22 99,-46 57,-46 45,-34 57,-22"/>
<text text-anchor="middle" x="72" y="-31.5" font-family="Verdana" font-size="10.00" fill="#000000">result</text>
</g>
<!-- /model&#45;&gt;/out_result -->
<g id="edge3" class="edge">
<title>/model&#45;&gt;/out_result</title>
<path fill="none" stroke="#000000" stroke-opacity="0.466667" d="M72,-87.8263C72,-78.8344 72,-68.5594 72,-59.4133"/>
<polygon fill="#000000" fill-opacity="0.466667" stroke="#000000" stroke-opacity="0.466667" points="74.4501,-59.3664 72,-52.3664 69.5501,-59.3665 74.4501,-59.3664"/>
</g>
<!-- /inp_dataset_preprocess -->
<g id="node3" class="node">
<title>/inp_dataset_preprocess</title>
<polygon fill="#f6bd98" stroke="#f6bd98" points="116,-284 16,-284 16,-260 116,-260 128,-272 116,-284"/>
<text text-anchor="middle" x="72" y="-269.5" font-family="Verdana" font-size="10.00" fill="#000000">dataset_preprocess</text>
</g>
<!-- /inp_dataset_preprocess&#45;&gt;/preprocess -->
<g id="edge2" class="edge">
<title>/inp_dataset_preprocess&#45;&gt;/preprocess</title>
<path fill="none" stroke="#000000" stroke-opacity="0.466667" d="M72,-253.6336C72,-245.1443 72,-234.8304 72,-225.2084"/>
<polygon fill="#000000" fill-opacity="0.466667" stroke="#000000" stroke-opacity="0.466667" points="74.4501,-225.027 72,-218.027 69.5501,-225.0271 74.4501,-225.027"/>
</g>
</g>
</svg>
